<svg xmlns="http://www.w3.org/2000/svg" xmlns:xlink="http://www.w3.org/1999/xlink" viewBox="0 0 187.24 43.85">
  <defs>
    <style>
      .cls-1 {
        fill: none;
      }

      .cls-2 {
        fill: #fff;
      }

      .cls-3 {
        opacity: 0.5;
      }

      .cls-4 {
        clip-path: url(#clip-path);
      }

      .cls-5 {
        fill: #a4c217;
      }

      .cls-6 {
        clip-path: url(#clip-path-2);
      }

      .cls-7 {
        fill: #ec8300;
      }

      .cls-8 {
        clip-path: url(#clip-path-3);
      }

      .cls-9 {
        fill: #86408e;
      }

      .cls-10 {
        clip-path: url(#clip-path-4);
      }

      .cls-11 {
        fill: #e13914;
      }

      .cls-12 {
        clip-path: url(#clip-path-5);
      }

      .cls-13 {
        fill: #ffe800;
      }

      .cls-14 {
        clip-path: url(#clip-path-6);
      }

      .cls-15 {
        fill: #6ab03c;
      }

      .cls-16 {
        clip-path: url(#clip-path-7);
      }

      .cls-17 {
        fill: #4ba5dc;
      }

      .cls-18 {
        clip-path: url(#clip-path-8);
      }

      .cls-19 {
        fill: #74c3d7;
      }

      .cls-20 {
        clip-path: url(#clip-path-9);
      }

      .cls-21 {
        fill: #e00b6c;
      }

      .cls-22 {
        clip-path: url(#clip-path-13);
      }
    </style>
    <clipPath id="clip-path" transform="translate(0 0)">
      <rect class="cls-1" x="4.42" y="21.93" width="14.62" height="14.62" />
    </clipPath>
    <clipPath id="clip-path-2" transform="translate(0 0)">
      <rect class="cls-1" x="24.82" y="21.93" width="14.62" height="14.62" />
    </clipPath>
    <clipPath id="clip-path-3" transform="translate(0 0)">
      <rect class="cls-1" x="24.82" y="7.31" width="14.62" height="14.62" />
    </clipPath>
    <clipPath id="clip-path-4" transform="translate(0 0)">
      <rect class="cls-1" x="29.24" y="14.62" width="14.62" height="14.62" />
    </clipPath>
    <clipPath id="clip-path-5" transform="translate(0 0)">
      <rect class="cls-1" x="14.62" y="29.24" width="14.62" height="14.62" />
    </clipPath>
    <clipPath id="clip-path-6" transform="translate(0 0)">
      <rect class="cls-1" y="14.62" width="14.62" height="14.62" />
    </clipPath>
    <clipPath id="clip-path-7" transform="translate(0 0)">
      <rect class="cls-1" x="14.62" width="14.62" height="14.62" />
    </clipPath>
    <clipPath id="clip-path-8" transform="translate(0 0)">
      <rect class="cls-1" x="4.42" y="7.31" width="14.62" height="14.62" />
    </clipPath>
    <clipPath id="clip-path-9" transform="translate(0 0)">
      <rect class="cls-1" x="14.62" y="14.62" width="14.62" height="14.62" />
    </clipPath>
    <clipPath id="clip-path-13" transform="translate(0 0)">
      <rect class="cls-1" x="29.24" y="14.62" width="14.62" height="14.62" />
    </clipPath>
  </defs>
  <g id="Calque_2" data-name="Calque 2">
    <g id="Calque_1-2" data-name="Calque 1">
      <path class="cls-2" d="M63.35,13a6.28,6.28,0,0,1,2.79,2.31,6.54,6.54,0,0,1,1,3.58,6.54,6.54,0,0,1-1,3.56,6.23,6.23,0,0,1-2.79,2.32,10.3,10.3,0,0,1-4.25.81H54.85V29a2,2,0,0,1-2,2H51.36V12.2H59.1A10.46,10.46,0,0,1,63.35,13Zm-1,8.65a3.34,3.34,0,0,0,1.18-2.76,3.36,3.36,0,0,0-1.18-2.77,5.32,5.32,0,0,0-3.46-1H54.85v7.47h4.09A5.32,5.32,0,0,0,62.4,21.65Z" transform="translate(0 0)" />
      <path class="cls-2" d="M82.31,30.16l-3.25-4.67a6.41,6.41,0,0,1-.73,0H74.09V29a2,2,0,0,1-2,2H70.6V12.2h7.73a10.55,10.55,0,0,1,4.26.8,6.19,6.19,0,0,1,2.78,2.31,6.46,6.46,0,0,1,1,3.58,6.37,6.37,0,0,1-1,3.65,6.12,6.12,0,0,1-3,2.28L86.66,31H83.93A2,2,0,0,1,82.31,30.16Zm-.67-14a5.36,5.36,0,0,0-3.47-1H74.09v7.5h4.08a5.36,5.36,0,0,0,3.47-1,3.41,3.41,0,0,0,1.18-2.78A3.36,3.36,0,0,0,81.64,16.12Z" transform="translate(0 0)" />
      <path class="cls-2" d="M93.83,30a9.2,9.2,0,0,1-3.62-3.46,9.51,9.51,0,0,1-1.32-5,9.51,9.51,0,0,1,1.32-5,9.14,9.14,0,0,1,3.62-3.46,11.38,11.38,0,0,1,10.37,0,9.27,9.27,0,0,1,3.63,3.45,9.5,9.5,0,0,1,1.32,5,9.5,9.5,0,0,1-1.32,5A9.27,9.27,0,0,1,104.2,30a11.38,11.38,0,0,1-10.37,0Zm8.57-2.66A6.11,6.11,0,0,0,104.77,25a7.15,7.15,0,0,0,0-6.8,6.11,6.11,0,0,0-2.37-2.36,7.17,7.17,0,0,0-6.77,0,6.08,6.08,0,0,0-2.36,2.36,7.15,7.15,0,0,0,0,6.8,6.08,6.08,0,0,0,2.36,2.36,7.17,7.17,0,0,0,6.77,0Z" transform="translate(0 0)" />
      <path class="cls-2" d="M123.44,30.18l-4.51-6.32-4.47,6.31a1.94,1.94,0,0,1-1.6.83h-3l7-9.59-6.6-9.21h2.94a1.94,1.94,0,0,1,1.59.82L119,18.89,123.2,13a2,2,0,0,1,1.61-.82h2.77L121,21.28,128.06,31h-3A2,2,0,0,1,123.44,30.18Z" transform="translate(0 0)" />
      <path class="cls-2" d="M146.54,12.2V25.25a8.55,8.55,0,0,1-2.27,6.4A8.58,8.58,0,0,1,138,33.88a12.72,12.72,0,0,1-4.3-.69,8.91,8.91,0,0,1-3.27-1.95l.37-.71a2,2,0,0,1,2.67-.81A9.09,9.09,0,0,0,138,30.81q5.1,0,5.1-5.4V24a6.62,6.62,0,0,1-5.53,2.42,7.34,7.34,0,0,1-5.54-2,8.17,8.17,0,0,1-2-5.86V12.2h1.53a2,2,0,0,1,2,2v4.18a5.28,5.28,0,0,0,1.2,3.75,4.36,4.36,0,0,0,3.35,1.27A4.94,4.94,0,0,0,141.7,22a5.49,5.49,0,0,0,1.35-4V14.17a2,2,0,0,1,2-2Z" transform="translate(0 0)" />
      <path class="cls-2" d="M177.6,13.85a7.61,7.61,0,0,1,1.85,5.52V29a2,2,0,0,1-2,2H176V19.5a4.51,4.51,0,0,0-1.17-3.37,4.17,4.17,0,0,0-3-1.14,4.65,4.65,0,0,0-3.34,1.18,4.8,4.8,0,0,0-1.25,3.63V29a2,2,0,0,1-2,2h-1.52V19.5a4.67,4.67,0,0,0-1.09-3.38,4,4,0,0,0-3-1.13,4.77,4.77,0,0,0-3.4,1.2,4.71,4.71,0,0,0-1.27,3.61V29a2,2,0,0,1-2,2h-1.53V12.2h1.42a2,2,0,0,1,2,2v.5a5.58,5.58,0,0,1,2.34-2,7.81,7.81,0,0,1,3.41-.71,7.54,7.54,0,0,1,3.46.75,5.09,5.09,0,0,1,2.23,2.12,6.25,6.25,0,0,1,2.57-2.12,8.51,8.51,0,0,1,3.61-.75A6.82,6.82,0,0,1,177.6,13.85Z" transform="translate(0 0)" />
      <path class="cls-2" d="M185.45,7.12a3.34,3.34,0,0,1,1.32,1.34,4.08,4.08,0,0,1,.48,2,4,4,0,0,1-.48,2,3.39,3.39,0,0,1-1.32,1.36,4.16,4.16,0,0,1-3.92,0,3.5,3.5,0,0,1-1.34-1.36,4,4,0,0,1-.47-2,4.08,4.08,0,0,1,.47-2,3.36,3.36,0,0,1,1.33-1.34,4.1,4.1,0,0,1,2-.47A4,4,0,0,1,185.45,7.12Zm-.18,6.31a2.92,2.92,0,0,0,1.17-1.19,3.77,3.77,0,0,0,.41-1.78,3.87,3.87,0,0,0-.41-1.81,2.94,2.94,0,0,0-1.17-1.2,4,4,0,0,0-3.56,0,3,3,0,0,0-1.18,1.2,3.87,3.87,0,0,0-.41,1.81,3.77,3.77,0,0,0,.41,1.78,2.94,2.94,0,0,0,1.18,1.19,3.9,3.9,0,0,0,3.56,0ZM185,10.22a1.52,1.52,0,0,1-1,.43l1.35,2.07h-.72l-1.31-2.05h-.69v2.05H182V8h1.69a1.85,1.85,0,0,1,1.24.37,1.29,1.29,0,0,1,.41,1A1.24,1.24,0,0,1,185,10.22Zm-2.36,0h1c.7,0,1-.28,1-.85a.77.77,0,0,0-.25-.63,1.22,1.22,0,0,0-.8-.21h-1Z" transform="translate(0 0)" />
      <path class="cls-2" d="M13.81,36.54H9.64a5.22,5.22,0,0,1-5.22-5.22V27.15a5.22,5.22,0,0,1,5.22-5.22h4.17A5.22,5.22,0,0,1,19,27.15v4.17a5.22,5.22,0,0,1-5.22,5.22" transform="translate(0 0)" />
      <path class="cls-2" d="M34.21,36.54H30.05a5.23,5.23,0,0,1-5.23-5.22V27.15a5.23,5.23,0,0,1,5.23-5.22h4.16a5.23,5.23,0,0,1,5.23,5.22v4.17a5.23,5.23,0,0,1-5.23,5.22" transform="translate(0 0)" />
      <path class="cls-2" d="M34.21,21.92H30.05a5.23,5.23,0,0,1-5.23-5.22V12.53a5.23,5.23,0,0,1,5.23-5.22h4.16a5.23,5.23,0,0,1,5.23,5.22V16.7a5.23,5.23,0,0,1-5.23,5.22" transform="translate(0 0)" />
      <path class="cls-2" d="M38.63,29.24H34.47A5.23,5.23,0,0,1,29.24,24V19.84a5.23,5.23,0,0,1,5.23-5.22h4.16a5.22,5.22,0,0,1,5.22,5.22V24a5.22,5.22,0,0,1-5.22,5.23" transform="translate(0 0)" />
      <path class="cls-2" d="M24,43.85H19.85a5.23,5.23,0,0,1-5.23-5.22V34.46a5.23,5.23,0,0,1,5.23-5.22H24a5.23,5.23,0,0,1,5.23,5.22v4.17A5.23,5.23,0,0,1,24,43.85" transform="translate(0 0)" />
      <path class="cls-2" d="M9.39,29.24H5.23A5.23,5.23,0,0,1,0,24V19.84a5.23,5.23,0,0,1,5.23-5.22H9.39a5.23,5.23,0,0,1,5.23,5.22V24a5.23,5.23,0,0,1-5.23,5.23" transform="translate(0 0)" />
      <path class="cls-2" d="M24,14.62H19.85a5.23,5.23,0,0,1-5.23-5.23V5.23A5.23,5.23,0,0,1,19.85,0H24a5.23,5.23,0,0,1,5.23,5.23V9.39A5.23,5.23,0,0,1,24,14.62" transform="translate(0 0)" />
      <path class="cls-2" d="M13.81,21.93H9.64A5.23,5.23,0,0,1,4.42,16.7V12.54A5.23,5.23,0,0,1,9.64,7.31h4.17A5.23,5.23,0,0,1,19,12.54V16.7a5.23,5.23,0,0,1-5.22,5.23" transform="translate(0 0)" />
      <path class="cls-2" d="M24,29.24H19.85A5.23,5.23,0,0,1,14.62,24V19.84a5.23,5.23,0,0,1,5.23-5.22H24a5.23,5.23,0,0,1,5.23,5.22V24A5.23,5.23,0,0,1,24,29.24" transform="translate(0 0)" />
      <g class="cls-3">
        <g class="cls-4">
          <path class="cls-5" d="M13.81,36.54H9.64a5.22,5.22,0,0,1-5.22-5.22V27.15a5.22,5.22,0,0,1,5.22-5.22h4.17A5.22,5.22,0,0,1,19,27.15v4.17a5.22,5.22,0,0,1-5.22,5.22" transform="translate(0 0)" />
        </g>
      </g>
      <g class="cls-3">
        <g class="cls-6">
          <path class="cls-7" d="M34.21,36.54H30.05a5.23,5.23,0,0,1-5.23-5.22V27.15a5.23,5.23,0,0,1,5.23-5.22h4.16a5.23,5.23,0,0,1,5.23,5.22v4.17a5.23,5.23,0,0,1-5.23,5.22" transform="translate(0 0)" />
        </g>
      </g>
      <g class="cls-3">
        <g class="cls-8">
          <path class="cls-9" d="M34.21,21.92H30.05a5.23,5.23,0,0,1-5.23-5.22V12.53a5.23,5.23,0,0,1,5.23-5.22h4.16a5.23,5.23,0,0,1,5.23,5.22V16.7a5.23,5.23,0,0,1-5.23,5.22" transform="translate(0 0)" />
        </g>
      </g>
      <g class="cls-3">
        <g class="cls-10">
          <path class="cls-11" d="M38.63,29.24H34.47A5.23,5.23,0,0,1,29.24,24V19.84a5.23,5.23,0,0,1,5.23-5.22h4.16a5.22,5.22,0,0,1,5.22,5.22V24a5.22,5.22,0,0,1-5.22,5.23" transform="translate(0 0)" />
        </g>
      </g>
      <g class="cls-3">
        <g class="cls-12">
          <path class="cls-13" d="M24,43.85H19.85a5.23,5.23,0,0,1-5.23-5.22V34.46a5.23,5.23,0,0,1,5.23-5.22H24a5.23,5.23,0,0,1,5.23,5.22v4.17A5.23,5.23,0,0,1,24,43.85" transform="translate(0 0)" />
        </g>
      </g>
      <g class="cls-3">
        <g class="cls-14">
          <path class="cls-15" d="M9.39,29.24H5.23A5.23,5.23,0,0,1,0,24V19.84a5.23,5.23,0,0,1,5.23-5.22H9.39a5.23,5.23,0,0,1,5.23,5.22V24a5.23,5.23,0,0,1-5.23,5.23" transform="translate(0 0)" />
        </g>
      </g>
      <g class="cls-3">
        <g class="cls-16">
          <path class="cls-17" d="M24,14.62H19.85a5.23,5.23,0,0,1-5.23-5.23V5.23A5.23,5.23,0,0,1,19.85,0H24a5.23,5.23,0,0,1,5.23,5.23V9.39A5.23,5.23,0,0,1,24,14.62" transform="translate(0 0)" />
        </g>
      </g>
      <g class="cls-3">
        <g class="cls-18">
          <path class="cls-19" d="M13.81,21.93H9.64A5.23,5.23,0,0,1,4.42,16.7V12.54A5.23,5.23,0,0,1,9.64,7.31h4.17A5.23,5.23,0,0,1,19,12.54V16.7a5.23,5.23,0,0,1-5.22,5.23" transform="translate(0 0)" />
        </g>
      </g>
      <g class="cls-3">
        <g class="cls-20">
          <path class="cls-21" d="M24,29.24H19.85A5.23,5.23,0,0,1,14.62,24V19.84a5.23,5.23,0,0,1,5.23-5.22H24a5.23,5.23,0,0,1,5.23,5.22V24A5.23,5.23,0,0,1,24,29.24" transform="translate(0 0)" />
        </g>
      </g>
      <g class="cls-3">
        <g class="cls-4">
          <path class="cls-5" d="M13.81,36.54H9.64a5.22,5.22,0,0,1-5.22-5.22V27.15a5.22,5.22,0,0,1,5.22-5.22h4.17A5.22,5.22,0,0,1,19,27.15v4.17a5.22,5.22,0,0,1-5.22,5.22" transform="translate(0 0)" />
        </g>
      </g>
      <g class="cls-3">
        <g class="cls-6">
          <path class="cls-7" d="M34.21,36.54H30.05a5.23,5.23,0,0,1-5.23-5.22V27.15a5.23,5.23,0,0,1,5.23-5.22h4.16a5.23,5.23,0,0,1,5.23,5.22v4.17a5.23,5.23,0,0,1-5.23,5.22" transform="translate(0 0)" />
        </g>
      </g>
      <g class="cls-3">
        <g class="cls-8">
          <path class="cls-9" d="M34.21,21.92H30.05a5.23,5.23,0,0,1-5.23-5.22V12.53a5.23,5.23,0,0,1,5.23-5.22h4.16a5.23,5.23,0,0,1,5.23,5.22V16.7a5.23,5.23,0,0,1-5.23,5.22" transform="translate(0 0)" />
        </g>
      </g>
      <g class="cls-3">
        <g class="cls-22">
          <path class="cls-11" d="M38.63,29.23H34.47A5.23,5.23,0,0,1,29.24,24V19.84a5.23,5.23,0,0,1,5.23-5.22h4.16a5.22,5.22,0,0,1,5.22,5.22V24a5.22,5.22,0,0,1-5.22,5.22" transform="translate(0 0)" />
        </g>
      </g>
      <g class="cls-3">
        <g class="cls-12">
          <path class="cls-13" d="M24,43.85H19.85a5.23,5.23,0,0,1-5.23-5.22V34.46a5.23,5.23,0,0,1,5.23-5.22H24a5.23,5.23,0,0,1,5.23,5.22v4.17A5.23,5.23,0,0,1,24,43.85" transform="translate(0 0)" />
        </g>
      </g>
      <g class="cls-3">
        <g class="cls-14">
          <path class="cls-15" d="M9.39,29.24H5.23A5.23,5.23,0,0,1,0,24V19.84a5.23,5.23,0,0,1,5.23-5.22H9.39a5.23,5.23,0,0,1,5.23,5.22V24a5.23,5.23,0,0,1-5.23,5.23" transform="translate(0 0)" />
        </g>
      </g>
      <g class="cls-3">
        <g class="cls-16">
          <path class="cls-17" d="M24,14.62H19.85a5.23,5.23,0,0,1-5.23-5.23V5.23A5.23,5.23,0,0,1,19.85,0H24a5.23,5.23,0,0,1,5.23,5.23V9.39A5.23,5.23,0,0,1,24,14.62" transform="translate(0 0)" />
        </g>
      </g>
      <g class="cls-3">
        <g class="cls-18">
          <path class="cls-19" d="M13.81,21.93H9.64A5.23,5.23,0,0,1,4.42,16.7V12.54A5.23,5.23,0,0,1,9.64,7.31h4.17A5.23,5.23,0,0,1,19,12.54V16.7a5.23,5.23,0,0,1-5.22,5.23" transform="translate(0 0)" />
        </g>
      </g>
      <g class="cls-3">
        <g class="cls-20">
          <path class="cls-21" d="M24,29.24H19.85A5.23,5.23,0,0,1,14.62,24V19.84a5.23,5.23,0,0,1,5.23-5.22H24a5.23,5.23,0,0,1,5.23,5.22V24A5.23,5.23,0,0,1,24,29.24" transform="translate(0 0)" />
        </g>
      </g>
    </g>
  </g>
</svg>